<svg width="40" height="40" viewBox="0 0 40 40" fill="none" xmlns="http://www.w3.org/2000/svg">
<rect x="0.5" y="0.5" width="39" height="39" rx="19.5" stroke="#D2A49B"/>
<g clip-path="url(#clip0_250_1689)">
<path d="M19.9792 11.8019C22.6445 11.8019 22.9574 11.8138 24.0108 11.8613C24.9851 11.9049 25.5118 12.0673 25.8643 12.2059C26.3316 12.3881 26.6643 12.6019 27.0128 12.9504C27.3613 13.299 27.5792 13.6316 27.7574 14.099C27.892 14.4514 28.0584 14.9782 28.1019 15.9524C28.1495 17.0059 28.1613 17.3188 28.1613 19.9841C28.1613 22.6495 28.1495 22.9623 28.1019 24.0158C28.0584 24.99 27.896 25.5168 27.7574 25.8693C27.5752 26.3366 27.3613 26.6693 27.0128 27.0178C26.6643 27.3663 26.3316 27.5841 25.8643 27.7623C25.5118 27.897 24.9851 28.0633 24.0108 28.1069C22.9574 28.1544 22.6445 28.1663 19.9792 28.1663C17.3138 28.1663 17.0009 28.1544 15.9475 28.1069C14.9732 28.0633 14.4465 27.9009 14.094 27.7623C13.6267 27.5801 13.294 27.3663 12.9455 27.0178C12.597 26.6693 12.3792 26.3366 12.2009 25.8693C12.0663 25.5168 11.9 24.99 11.8564 24.0158C11.8089 22.9623 11.797 22.6495 11.797 19.9841C11.797 17.3188 11.8089 17.0059 11.8564 15.9524C11.9 14.9782 12.0623 14.4514 12.2009 14.099C12.3831 13.6316 12.597 13.299 12.9455 12.9504C13.294 12.6019 13.6267 12.3841 14.094 12.2059C14.4465 12.0712 14.9732 11.9049 15.9475 11.8613C17.0009 11.8098 17.3138 11.8019 19.9792 11.8019ZM19.9792 10.0039C17.2703 10.0039 16.9297 10.0158 15.8643 10.0633C14.8029 10.1108 14.0782 10.2811 13.4445 10.5267C12.7871 10.7801 12.2326 11.1247 11.6782 11.6792C11.1237 12.2336 10.7831 12.792 10.5257 13.4455C10.2802 14.0792 10.1099 14.8039 10.0623 15.8693C10.0148 16.9306 10.0029 17.2712 10.0029 19.9801C10.0029 22.6891 10.0148 23.0297 10.0623 24.095C10.1099 25.1564 10.2802 25.8811 10.5257 26.5188C10.7792 27.1762 11.1237 27.7306 11.6782 28.2851C12.2326 28.8396 12.791 29.1801 13.4445 29.4376C14.0782 29.6831 14.8029 29.8534 15.8683 29.9009C16.9336 29.9485 17.2703 29.9603 19.9831 29.9603C22.696 29.9603 23.0326 29.9485 24.098 29.9009C25.1594 29.8534 25.8841 29.6831 26.5217 29.4376C27.1792 29.1841 27.7336 28.8396 28.2881 28.2851C28.8425 27.7306 29.1831 27.1722 29.4406 26.5188C29.6861 25.8851 29.8564 25.1603 29.9039 24.095C29.9514 23.0297 29.9633 22.693 29.9633 19.9801C29.9633 17.2673 29.9514 16.9306 29.9039 15.8653C29.8564 14.8039 29.6861 14.0792 29.4406 13.4415C29.1871 12.7841 28.8425 12.2296 28.2881 11.6752C27.7336 11.1207 27.1752 10.7801 26.5217 10.5227C25.8881 10.2772 25.1633 10.1069 24.098 10.0594C23.0287 10.0158 22.6881 10.0039 19.9792 10.0039Z" fill="#B18151"/>
<path d="M19.9792 14.8555C17.1514 14.8555 14.8544 17.1485 14.8544 19.9802C14.8544 22.8119 17.1514 25.105 19.9792 25.105C22.8069 25.105 25.1039 22.8079 25.1039 19.9802C25.1039 17.1525 22.8069 14.8555 19.9792 14.8555ZM19.9792 23.307C18.1415 23.307 16.6524 21.8178 16.6524 19.9802C16.6524 18.1426 18.1415 16.6535 19.9792 16.6535C21.8168 16.6535 23.3059 18.1426 23.3059 19.9802C23.3059 21.8178 21.8168 23.307 19.9792 23.307Z" fill="#B18151"/>
<path d="M25.3059 15.8496C25.9665 15.8496 26.5019 15.3141 26.5019 14.6536C26.5019 13.993 25.9665 13.4575 25.3059 13.4575C24.6453 13.4575 24.1099 13.993 24.1099 14.6536C24.1099 15.3141 24.6453 15.8496 25.3059 15.8496Z" fill="#B18151"/>
</g>
<defs>
<clipPath id="clip0_250_1689">
<rect width="20" height="20" fill="white" transform="translate(10 10)"/>
</clipPath>
</defs>
</svg>
