<svg width="132" height="31" viewBox="0 0 132 31" fill="none" xmlns="http://www.w3.org/2000/svg">
<path d="M93.9131 30.0918C94.0017 30.0918 94.1206 30.1212 94.1797 30.21C94.2683 30.2987 94.2978 30.3878 94.2979 30.4766C94.2979 30.5653 94.2683 30.684 94.1797 30.7432C94.091 30.8319 94.0018 30.8613 93.9131 30.8613C93.7951 30.8613 93.7066 30.8317 93.6475 30.7432C93.5588 30.6544 93.5293 30.5653 93.5293 30.4766C93.5293 30.3878 93.5588 30.2691 93.6475 30.21C93.736 30.1215 93.8246 30.0918 93.9131 30.0918ZM110.94 30.0918C111.029 30.0919 111.147 30.1214 111.206 30.21C111.295 30.2987 111.324 30.3878 111.324 30.4766C111.324 30.5652 111.295 30.683 111.206 30.7422C111.118 30.8308 111.029 30.8612 110.94 30.8613C110.822 30.8613 110.733 30.831 110.674 30.7422C110.585 30.6536 110.556 30.5651 110.556 30.4766C110.556 30.3878 110.585 30.2692 110.674 30.21C110.763 30.1212 110.852 30.0918 110.94 30.0918ZM129.622 24.9434C129.977 24.9434 130.154 24.9728 130.361 25.0615C130.568 25.1503 130.746 25.2391 130.894 25.3574C131.041 25.4758 131.13 25.5943 131.219 25.7422C131.307 25.8605 131.367 26.0086 131.426 26.127C131.455 26.2452 131.484 26.3341 131.514 26.4229V26.541H130.923V26.4521C130.923 26.393 130.864 26.3044 130.834 26.2158C130.775 26.1271 130.716 26.0087 130.627 25.9199C130.538 25.8312 130.391 25.7418 130.243 25.6826C130.095 25.6234 129.888 25.5947 129.651 25.5947C129.415 25.5948 129.178 25.6535 129.001 25.7422C128.824 25.831 128.646 25.9791 128.528 26.127C128.41 26.3045 128.321 26.4824 128.232 26.6895C128.173 26.8964 128.145 27.1034 128.145 27.3398C128.145 27.5766 128.173 27.7841 128.232 27.9912C128.292 28.1982 128.381 28.3753 128.528 28.5527C128.646 28.7301 128.824 28.8488 129.001 28.9375C129.178 29.0262 129.415 29.0859 129.651 29.0859C129.888 29.0859 130.066 29.0562 130.243 28.9971C130.391 28.938 130.538 28.8494 130.627 28.7607C130.715 28.6721 130.804 28.5536 130.834 28.4648C130.893 28.3761 130.923 28.2867 130.923 28.2275V28.1387H131.514C131.514 28.1387 131.514 28.169 131.514 28.2578C131.514 28.3463 131.485 28.4349 131.426 28.5527C131.396 28.671 131.307 28.7897 131.219 28.9375C131.13 29.0558 131.012 29.204 130.894 29.3223C130.746 29.4406 130.568 29.5294 130.361 29.6182C130.154 29.7069 129.918 29.7363 129.622 29.7363L129.367 29.5479C129.122 29.5243 128.906 29.4634 128.706 29.3525C128.44 29.2342 128.233 29.056 128.056 28.8193C127.878 28.6123 127.76 28.3463 127.671 28.0801C127.582 27.8138 127.553 27.5173 127.553 27.251C127.553 26.9848 127.582 26.689 127.671 26.4229C127.76 26.1566 127.878 25.8897 128.056 25.6826C128.233 25.4756 128.44 25.2983 128.706 25.1504C128.972 25.0321 129.268 24.9434 129.622 24.9434ZM98.584 24.9434C98.9385 24.9434 99.2339 25.0026 99.5293 25.1504C99.7953 25.2687 100.033 25.446 100.21 25.6826C100.387 25.8897 100.534 26.1566 100.623 26.4229C100.712 26.689 100.771 26.9848 100.771 27.251C100.771 27.5173 100.712 27.8138 100.623 28.0801C100.534 28.3461 100.387 28.6124 100.21 28.8193C100.033 29.0265 99.7953 29.2046 99.5293 29.3525C99.2634 29.4708 98.9384 29.5595 98.584 29.5596C98.2293 29.5596 97.9333 29.5004 97.6377 29.3525C97.3717 29.2342 97.1354 29.056 96.958 28.8193C96.7807 28.6123 96.6326 28.3463 96.5439 28.0801C96.4553 27.8138 96.3965 27.5173 96.3965 27.251C96.3965 26.9848 96.4553 26.689 96.5439 26.4229C96.6326 26.1566 96.7806 25.9193 96.958 25.6826C97.1353 25.4756 97.3718 25.2983 97.6377 25.1504C97.9037 25.032 98.2293 24.9434 98.584 24.9434ZM112.3 25.5645H110.054V26.9854H112.004V27.5176H110.054V29.0264H112.329V29.5596H109.462V25.0322H112.3V25.5645ZM80.7295 25.5645H78.4824V26.9844H80.4336V27.5176H78.4824V29.0264H80.7588V29.5586H77.8916V25.0322H80.7295V25.5645ZM70.0576 25.0322V29.5H0V25.0322H70.0576ZM72.3643 27.0439L74.2852 25.0322H75.0537L72.9551 27.1631L75.1426 29.5H74.3447L72.3643 27.3701V29.5H71.7725V25.0322H72.3643V27.0439ZM76.6504 29.5H76.0586V25.0322H76.6504V29.5ZM84.6904 28.4346V25.0322H85.2812V29.5H84.75L82.4141 26.0977V29.5H81.8232V25.0322H82.3555L84.6904 28.4346ZM91.1934 25.5352H89.8047V29.5H89.2129V25.5352H87.8242V25.0322H91.1934V25.5352ZM95.835 29.5H95.2139L94.8301 28.4346H92.9375L92.5537 29.5H91.9619L93.5293 25.0322H94.2676L95.835 29.5ZM103.935 27.0439L105.855 25.0322H106.624L104.555 27.1631L106.713 29.5H105.944L103.935 27.3701V29.5H103.343V25.0322H103.935V27.0439ZM108.25 29.5H107.659V25.0322H108.25V29.5ZM116.586 25.5352H115.196V29.5H114.605V25.5352H113.216V25.0322H116.586V25.5352ZM122.291 25.5352H120.902V29.5H120.311V25.5352H118.922V25.0322H122.291V25.5352ZM126.933 29.5H126.312L125.927 28.4346H124.035L123.651 29.5H123.06L124.627 25.0322H125.365L126.933 29.5ZM98.584 25.5059C98.3181 25.5059 98.1111 25.5647 97.9043 25.6533C97.6974 25.7421 97.5489 25.8901 97.4307 26.0381C97.3124 26.2156 97.1939 26.3935 97.1348 26.6006C97.0757 26.8075 97.0469 27.0145 97.0469 27.251C97.0469 27.4877 97.0757 27.6952 97.1348 27.9023C97.1939 28.1095 97.3124 28.2873 97.4307 28.4648C97.5489 28.6423 97.727 28.7599 97.9043 28.8486C98.1111 28.9373 98.318 28.9971 98.584 28.9971C98.8499 28.997 99.0568 28.9374 99.2637 28.8486C99.4703 28.7599 99.6182 28.6126 99.7363 28.4648C99.8546 28.2873 99.9731 28.1094 100.032 27.9023C100.091 27.6952 100.121 27.4877 100.121 27.251C100.121 27.0145 100.091 26.8075 100.032 26.6006C99.9731 26.3935 99.8546 26.2156 99.7363 26.0381C99.6181 25.8606 99.441 25.7421 99.2637 25.6533C99.0568 25.5646 98.8499 25.5059 98.584 25.5059ZM93.1445 27.9023H94.6816L93.9131 25.7129L93.1445 27.9023ZM124.213 27.9023H125.75L124.981 25.7129L124.213 27.9023ZM80.375 24.5586H79.8428L79.3994 23.9961L78.9561 24.5586H78.3945L79.1328 23.6709H79.6357L80.375 24.5586ZM111.945 24.5586H111.413L110.97 23.9961L110.526 24.5586H109.965L110.703 23.6709H111.206L111.945 24.5586ZM125.247 24.5586H124.745L125.276 23.4639H125.868L125.247 24.5586ZM80.5225 23.7891H80.0195L80.5518 22.6943H81.1436L80.5225 23.7891ZM22.4951 20.9785L17.7363 20.9492C16.82 19.2331 15.6075 17.8423 13.9521 16.8066C14.5432 16.8658 15.1347 16.9839 15.6963 17.1318L8.86816 4.40918L11.2334 0L22.4951 20.9785ZM37.5713 20.9785H35.4131V11.2441L30.9199 15.7412L24.2695 9.08398V6.00684L30.9199 12.6641L37.5713 6.00684V20.9785ZM116.764 20.9785H116.733C112.772 17.0137 108.812 13.0488 104.851 9.08398V6.00684L114.576 15.7412V6.00684H116.764V20.9785ZM127.228 6.00684C129.533 6.00684 131.395 7.81163 131.514 10.0898H129.326C129.208 9.02479 128.321 8.19629 127.228 8.19629H122.794C121.641 8.19629 120.696 9.14307 120.695 10.2969C120.695 11.4508 121.641 12.3984 122.794 12.3984H127.228C129.592 12.3984 131.514 14.3214 131.514 16.6885C131.514 19.0556 129.592 20.9785 127.228 20.9785H122.794C120.488 20.9785 118.626 19.1739 118.508 16.8955H120.695C120.814 17.9607 121.7 18.7891 122.794 18.7891H127.228C128.38 18.7891 129.326 17.8424 129.326 16.6885C129.326 15.5345 128.38 14.5879 127.228 14.5879H122.794C120.429 14.5879 118.508 12.664 118.508 10.2969C118.508 7.92992 120.429 6.00684 122.794 6.00684H127.228ZM8.59766 16.5752C11.8951 16.6802 14.8069 18.3983 16.5537 20.9492C15.1644 19.7066 13.302 18.9375 11.292 18.9375C9.28196 18.9375 7.41959 19.7066 6.03027 20.9492H0.0292969C1.83248 18.2862 4.8481 16.5703 8.30664 16.5703L8.59766 16.5752ZM26.4561 12.7822V20.9492H24.2695V10.5928L26.4561 12.7822ZM68.4326 5.97656C68.61 8.72831 67.3089 11.3324 64.9736 12.7822L69.9697 20.9492H67.4268L62.9639 13.6699C62.3135 13.8475 61.6626 13.9365 60.9531 13.9365H58.2637V20.9189H56.0762V5.94727H68.4326V5.97656ZM107.038 12.7822V20.9492H104.851V10.5928L107.038 12.7822ZM46.8232 5.97656C50.9617 5.97656 54.3027 9.32044 54.3027 13.4629C54.3026 17.6052 50.9616 20.9482 46.8232 20.9482C42.685 20.9481 39.3449 17.6051 39.3447 13.4629C39.3447 9.32052 42.6849 5.9767 46.8232 5.97656ZM79.2217 5.97656C82.5914 5.97656 85.429 8.19567 86.375 11.2432H84.04C83.2123 9.40877 81.3499 8.13672 79.2217 8.13672C77.0933 8.13682 73.9014 10.5041 73.9014 13.4629C73.9015 16.4216 76.2658 18.788 79.2217 18.7881C82.1777 18.7881 83.2123 17.5162 84.04 15.6816H86.375C85.4291 18.7293 82.5915 20.9482 79.2217 20.9482C75.8519 20.9482 71.7434 17.6051 71.7432 13.4629C71.7432 9.32048 75.0833 5.97663 79.2217 5.97656ZM95.6279 5.97656C99.7663 5.97669 103.106 9.32052 103.106 13.4629C103.106 17.6051 99.7662 20.9481 95.6279 20.9482C91.4896 20.9482 88.1496 17.6052 88.1494 13.4629C88.1494 9.32044 91.4895 5.97656 95.6279 5.97656ZM46.8232 8.16602C43.8673 8.16615 41.5029 10.5334 41.5029 13.4922C41.5029 16.451 43.8673 18.8182 46.8232 18.8184C49.7793 18.8184 52.1445 16.4511 52.1445 13.4922C52.1445 10.5333 49.7497 8.16602 46.8232 8.16602ZM95.6279 8.16602C92.6719 8.16602 90.3066 10.5333 90.3066 13.4922C90.3067 16.4511 92.6719 18.8184 95.6279 18.8184C98.5838 18.8182 100.948 16.451 100.948 13.4922C100.948 10.5334 98.5543 8.16614 95.6279 8.16602ZM10.6123 9.97168L8.04004 14.7646C8.39469 14.883 8.71982 15.0611 9.04492 15.209C8.77903 15.209 8.51296 15.1787 8.24707 15.1787H7.83301C5.67525 15.2675 3.66505 15.9783 2.00977 17.1914C4.07898 13.3153 6.17786 9.43863 8.24707 5.5625L10.6123 9.97168ZM58.2334 11.8057H60.9531C63.2884 11.8057 65.2986 10.2964 65.9785 8.16602H58.2334V11.8057Z" fill="white"/>
</svg>
