<svg width="40" height="40" viewBox="0 0 40 40" fill="none" xmlns="http://www.w3.org/2000/svg">
<rect x="0.5" y="0.5" width="39" height="39" rx="19.5" stroke="#D2A49B"/>
<path d="M29.58 15.0505C30 16.6505 30 19.9905 30 19.9905C30 19.9905 30 23.3305 29.58 24.9305C29.36 25.8105 28.68 26.5105 27.82 26.7505C26.26 27.1905 20 27.1905 20 27.1905C20 27.1905 13.74 27.1905 12.18 26.7505C11.32 26.5105 10.64 25.8105 10.42 24.9305C10 23.3305 10 19.9905 10 19.9905C10 19.9905 10 16.6505 10.42 15.0505C10.64 14.1705 11.32 13.4705 12.18 13.2305C13.74 12.8105 20 12.8105 20 12.8105C20 12.8105 26.26 12.8105 27.82 13.2305C28.68 13.4705 29.36 14.1705 29.58 15.0505ZM18.12 23.4305L23.12 20.3105L18.12 17.1905V23.4305Z" fill="#B18151"/>
</svg>
